<?xml version="1.0" encoding="utf-8"?>
<!-- Generator: Adobe Illustrator 24.2.1, SVG Export Plug-In . SVG Version: 6.00 Build 0)  -->
<svg version="1.1" id="Calque_1" xmlns="http://www.w3.org/2000/svg" xmlns:xlink="http://www.w3.org/1999/xlink" x="0px" y="0px"
	 viewBox="0 0 841.7 187.5" style="enable-background:new 0 0 841.7 187.5;" xml:space="preserve">
<style type="text/css">
	.st0{fill:#FFFFFF;}
	.st1{fill:#62C4DD;}
</style>
<g id="Calque_2_1_">
	<g id="Calque_1-2">
		<path class="st0" d="M0,166.5l14.3-31.6c15.3,11.1,38.1,18.9,59.8,18.9c24.9,0,35-8.3,35-19.4c0-33.9-105.4-10.6-105.4-78
			C3.6,25.6,28.5,0,80,0c22.8,0,46.1,5.4,62.9,16.1L130,47.9c-16.8-9.6-34.2-14.3-50.3-14.3c-24.9,0-34.4,9.3-34.4,20.7
			c0,33.4,105.4,10.4,105.4,76.9c0,30.3-25.1,56.2-76.9,56.2C45.1,187.5,16.1,179,0,166.5z"/>
		<path class="st0" d="M214.4,37.3h-58V3.1h158v34.2h-58v147.1h-42L214.4,37.3z"/>
		<polygon class="st1" points="337,150.7 337,184.4 477.3,184.4 477.3,150.7 378.7,150.7 		"/>
		<polygon class="st1" points="337,76.2 337,108.8 378.7,108.8 462.8,108.8 462.8,76.2 378.7,76.2 		"/>
		<polygon class="st1" points="337,3.1 337,36.8 378.7,36.8 474,36.8 474,3.1 		"/>
		<path class="st0" d="M651.1,150.7v33.7H510.7V3.1h137v33.7h-95.3v39.4h84.2v32.6h-84.2v42L651.1,150.7z"/>
		<path class="st0" d="M841.7,68.9c0,40.4-30.3,65.5-78.7,65.5h-36.5v50h-42V3.1H763C811.4,3.1,841.7,28.2,841.7,68.9z M799.3,68.9
			c0-19.9-13-31.6-38.6-31.6h-34.2v62.9h34.2C786.3,100.2,799.3,88.6,799.3,68.9z"/>
	</g>
</g>
</svg>
