<svg width="282" height="96" viewBox="0 0 282 96" fill="none" xmlns="http://www.w3.org/2000/svg">
<path d="M69.9033 19.4776C63.8473 7.75442 51.2199 0 36.9818 0C16.6233 0 0.0659145 15.5699 0.0659145 34.7423C0.0659145 39.9322 1.22558 44.939 3.5449 49.5795L0.0659145 65.9431C-0.385065 68.0191 1.5477 69.8509 3.73818 69.4235L21.1975 66.1263C23.5169 67.1643 25.965 67.9581 28.4776 68.5686C23.0014 43.4736 43.1023 19.844 69.9033 19.4776Z" fill="#96A1AE"/>
<path d="M103.92 75.0409C104.5 73.8197 105.016 72.5985 105.467 71.3774H105.338C113.198 49.5184 96.7047 26.5605 72.2873 25.4614C51.349 24.5455 33.8896 40.4818 33.8896 60.2037C33.8896 79.376 50.3182 94.9459 70.5478 94.9459C76.024 94.9459 81.3069 93.8469 86.2033 91.6488C105.338 95.2512 103.856 95.007 104.242 95.007C106.24 95.007 107.721 93.2974 107.335 91.4656L103.92 75.0409Z" fill="#62C4DD"/>
<path d="M132.719 51.5817C135.647 51.5817 138.071 50.5257 139.655 48.5817L137.159 46.2777C136.031 47.5977 134.615 48.2697 132.935 48.2697C129.791 48.2697 127.559 46.0617 127.559 42.8937C127.559 39.7257 129.791 37.5177 132.935 37.5177C134.615 37.5177 136.031 38.1897 137.159 39.4857L139.655 37.1817C138.071 35.2617 135.647 34.2057 132.743 34.2057C127.511 34.2057 123.623 37.8297 123.623 42.8937C123.623 47.9577 127.511 51.5817 132.719 51.5817ZM147.715 51.4857C151.819 51.4857 154.795 48.7257 154.795 44.8377C154.795 40.9497 151.819 38.1897 147.715 38.1897C143.611 38.1897 140.611 40.9497 140.611 44.8377C140.611 48.7257 143.611 51.4857 147.715 51.4857ZM147.715 48.4137C145.843 48.4137 144.403 47.0697 144.403 44.8377C144.403 42.6057 145.843 41.2617 147.715 41.2617C149.587 41.2617 151.003 42.6057 151.003 44.8377C151.003 47.0697 149.587 48.4137 147.715 48.4137ZM173.834 38.1897C171.89 38.1897 170.21 38.9817 169.178 40.3017C168.266 38.8857 166.73 38.1897 164.93 38.1897C163.274 38.1897 161.834 38.7657 160.874 39.8697V38.3817H157.298V51.2937H161.042V44.8137C161.042 42.5097 162.218 41.4297 163.874 41.4297C165.434 41.4297 166.322 42.3897 166.322 44.4777V51.2937H170.066V44.8137C170.066 42.5097 171.242 41.4297 172.922 41.4297C174.434 41.4297 175.37 42.3897 175.37 44.4777V51.2937H179.114V43.9017C179.114 39.9657 176.906 38.1897 173.834 38.1897ZM190.101 38.1897C188.373 38.1897 186.981 38.7417 186.045 39.8697V38.3817H182.469V55.9497H186.213V49.9257C187.173 50.9817 188.493 51.4857 190.101 51.4857C193.725 51.4857 196.533 48.8937 196.533 44.8377C196.533 40.7817 193.725 38.1897 190.101 38.1897ZM189.453 48.4137C187.581 48.4137 186.165 47.0697 186.165 44.8377C186.165 42.6057 187.581 41.2617 189.453 41.2617C191.325 41.2617 192.741 42.6057 192.741 44.8377C192.741 47.0697 191.325 48.4137 189.453 48.4137ZM202.616 40.0857V38.3817H199.04V51.2937H202.784V45.1977C202.784 42.7257 204.152 41.5977 206.216 41.5977C206.504 41.5977 206.744 41.6217 207.056 41.6457V38.1897C205.064 38.1897 203.528 38.8377 202.616 40.0857ZM221.813 44.8857C221.813 40.7337 218.885 38.1897 215.093 38.1897C211.157 38.1897 208.205 40.9737 208.205 44.8377C208.205 48.6777 211.109 51.4857 215.573 51.4857C217.901 51.4857 219.701 50.7657 220.901 49.3977L218.909 47.2377C218.021 48.0777 217.037 48.4857 215.669 48.4857C213.701 48.4857 212.333 47.5017 211.973 45.8937H221.741C221.765 45.5817 221.813 45.1737 221.813 44.8857ZM215.117 41.0217C216.797 41.0217 218.021 42.0777 218.285 43.7097H211.925C212.189 42.0537 213.413 41.0217 215.117 41.0217ZM232.153 38.1897C230.401 38.1897 228.889 38.7897 227.881 39.8937V38.3817H224.305V51.2937H228.049V44.9097C228.049 42.5337 229.345 41.4297 231.145 41.4297C232.801 41.4297 233.761 42.3897 233.761 44.4777V51.2937H237.505V43.9017C237.505 39.9657 235.201 38.1897 232.153 38.1897ZM250.448 33.4857V39.7497C249.512 38.6937 248.168 38.1897 246.584 38.1897C242.936 38.1897 240.128 40.7817 240.128 44.8377C240.128 48.8937 242.936 51.4857 246.584 51.4857C248.312 51.4857 249.68 50.9337 250.616 49.8057V51.2937H254.192V33.4857H250.448ZM247.232 48.4137C245.36 48.4137 243.92 47.0697 243.92 44.8377C243.92 42.6057 245.36 41.2617 247.232 41.2617C249.08 41.2617 250.52 42.6057 250.52 44.8377C250.52 47.0697 249.08 48.4137 247.232 48.4137ZM261.233 40.0857V38.3817H257.657V51.2937H261.401V45.1977C261.401 42.7257 262.769 41.5977 264.833 41.5977C265.121 41.5977 265.361 41.6217 265.673 41.6457V38.1897C263.681 38.1897 262.145 38.8377 261.233 40.0857ZM280.43 44.8857C280.43 40.7337 277.502 38.1897 273.71 38.1897C269.774 38.1897 266.822 40.9737 266.822 44.8377C266.822 48.6777 269.726 51.4857 274.19 51.4857C276.518 51.4857 278.318 50.7657 279.518 49.3977L277.526 47.2377C276.638 48.0777 275.654 48.4857 274.286 48.4857C272.318 48.4857 270.95 47.5017 270.59 45.8937H280.358C280.382 45.5817 280.43 45.1737 280.43 44.8857ZM273.734 41.0217C275.414 41.0217 276.638 42.0777 276.902 43.7097H270.542C270.806 42.0537 272.03 41.0217 273.734 41.0217Z" fill="#96A1AE"/>
<path d="M137.063 82.2409C137.063 78.0889 134.135 75.5449 130.343 75.5449C126.407 75.5449 123.455 78.3289 123.455 82.1929C123.455 86.0329 126.359 88.8409 130.823 88.8409C133.151 88.8409 134.951 88.1209 136.151 86.7529L134.159 84.5929C133.271 85.4329 132.287 85.8409 130.919 85.8409C128.951 85.8409 127.583 84.8569 127.223 83.2489H136.991C137.015 82.9369 137.063 82.5289 137.063 82.2409ZM130.367 78.3769C132.047 78.3769 133.271 79.4329 133.535 81.0649H127.175C127.439 79.4089 128.663 78.3769 130.367 78.3769ZM146.875 85.3849C146.467 85.6969 145.915 85.8649 145.363 85.8649C144.355 85.8649 143.755 85.2649 143.755 84.1609V78.9049H146.971V76.0249H143.755V72.8809H140.011V76.0249H138.019V78.9049H140.011V84.2089C140.011 87.2809 141.787 88.8409 144.835 88.8409C145.987 88.8409 147.115 88.5769 147.883 88.0249L146.875 85.3849ZM169.598 88.6489H173.678L166.166 71.8489H162.326L154.838 88.6489H158.822L160.31 85.0489H168.11L169.598 88.6489ZM161.558 82.0969L164.222 75.6649L166.886 82.0969H161.558ZM184.808 75.7369V77.3929C183.824 76.1449 182.336 75.5449 180.536 75.5449C176.96 75.5449 174.08 78.0169 174.08 81.7849C174.08 85.5529 176.96 88.0249 180.536 88.0249C182.216 88.0249 183.632 87.4969 184.616 86.4169V86.9689C184.616 89.2969 183.464 90.4969 180.824 90.4969C179.168 90.4969 177.368 89.9209 176.264 89.0329L174.776 91.7209C176.288 92.8969 178.664 93.4969 181.112 93.4969C185.768 93.4969 188.36 91.2889 188.36 86.4889V75.7369H184.808ZM181.28 84.9529C179.312 84.9529 177.872 83.6809 177.872 81.7849C177.872 79.8889 179.312 78.6169 181.28 78.6169C183.248 78.6169 184.664 79.8889 184.664 81.7849C184.664 83.6809 183.248 84.9529 181.28 84.9529ZM193.716 73.9369C195.108 73.9369 196.044 73.0249 196.044 71.7769C196.044 70.6249 195.108 69.7609 193.716 69.7609C192.324 69.7609 191.388 70.6729 191.388 71.8489C191.388 73.0249 192.324 73.9369 193.716 73.9369ZM191.844 88.6489H195.588V75.7369H191.844V88.6489ZM202.639 77.4409V75.7369H199.063V88.6489H202.807V82.5529C202.807 80.0809 204.175 78.9529 206.239 78.9529C206.527 78.9529 206.767 78.9769 207.079 79.0009V75.5449C205.087 75.5449 203.551 76.1929 202.639 77.4409Z" fill="#62C4DD"/>
</svg>
